<svg xmlns:dc="http://purl.org/dc/elements/1.1/" xmlns:cc="http://creativecommons.org/ns#" xmlns:rdf="http://www.w3.org/1999/02/22-rdf-syntax-ns#" xmlns:svg="http://www.w3.org/2000/svg" xmlns="http://www.w3.org/2000/svg" xmlns:sodipodi="http://sodipodi.sourceforge.net/DTD/sodipodi-0.dtd" xmlns:inkscape="http://www.inkscape.org/namespaces/inkscape" version="1.1" x="0px" y="0px" viewBox="0 0 100 125"><g transform="translate(0,-952.36218)"><path style="text-indent:0;text-transform:none;direction:ltr;block-progression:tb;baseline-shift:baseline;color:#000000;enable-background:accumulate;" d="m 66.870335,958.36422 a 2.056575,1.9455007 0 0 0 -1.686453,0.96941 l -12.211172,19.98248 -11.992557,0 a 1.998959,2.0015749 0 1 0 0,4.00275 l 9.556569,0 -7.339195,12.03952 a 2.056575,1.9455007 0 0 0 1.780145,2.90825 l 18.988216,0 0,25.07977 -15.209311,0 c -1.456224,-9.6074 -9.775891,-17.0117 -19.768981,-17.0117 -1.726401,0 -3.397595,0.2421 -4.996899,0.6566 l 0,-23.67244 8.994418,0 a 1.998959,2.0015749 0 1 0 0,-4.00275 l -10.993178,0 a 1.998959,2.0015749 0 0 0 -0.187384,0 1.998959,2.0015749 0 0 0 -1.811375,2.00138 l 0,27.17491 C 13.48197,1011.7961 9,1018.5573 9,1026.3484 c 0,11.0296 8.972425,20.0138 19.987596,20.0138 10.681368,0 19.435299,-8.4442 19.956365,-19.0131 l 17.020686,0 a 1.998959,2.0015749 0 0 0 1.99876,-2.0013 l 0,-27.08117 20.986975,0 a 2.056575,1.9455007 0 0 0 1.780146,-2.90825 L 68.744172,959.33363 a 2.056575,1.9455007 0 0 0 -1.873837,-0.96941 z m 0.09369,5.81649 18.426065,30.20826 -17.426685,0 0,-13.07148 a 1.998959,2.0015749 0 0 0 -1.99876,-2.00138 l -8.244883,0 9.244263,-15.1354 z m -11.680251,19.13815 8.682112,0 0,11.07011 -15.427925,0 6.745813,-11.07011 z m -26.29618,27.01854 c 7.823923,0 14.30567,5.5937 15.709,13.009 l -20.705899,0 0,-12.1959 c 1.569665,-0.5132 3.252446,-0.8131 4.996899,-0.8131 z m -8.994418,2.7519 0,12.2585 a 1.998959,2.0015749 0 0 0 1.998759,2.0013 l 22.923274,0 c -0.520298,8.3903 -7.413527,15.0103 -15.927615,15.0103 -8.854749,0 -15.990077,-7.1446 -15.990077,-16.011 0,-5.5256 2.763453,-10.3831 6.995659,-13.2591 z" fill="#000000" fill-opacity="1" stroke="none" marker="none" visibility="visible" display="inline" overflow="visible"/></g><text x="0" y="115" fill="#000000" font-size="5px" font-weight="bold" font-family="'Helvetica Neue', Helvetica, Arial-Unicode, Arial, Sans-serif">Created by Jaohuarye</text><text x="0" y="120" fill="#000000" font-size="5px" font-weight="bold" font-family="'Helvetica Neue', Helvetica, Arial-Unicode, Arial, Sans-serif">from the Noun Project</text></svg>